<svg aria-hidden="true" xmlns="http://www.w3.org/2000/svg" overflow="hidden"><defs><symbol id="google" viewBox="0 0 32 32"><path fill="var(--color1, #2196f3)" d="M31.743 13.038c.142 0 .258.115.258.258V16c0 1.012-.094 2.002-.274 2.962C30.332 26.419 23.763 32.054 15.888 32A15.961 15.961 0 01.001 15.964C.02 7.144 7.177 0 16.001 0c4.323 0 8.246 1.715 11.126 4.501a.258.258 0 01.004.369l-3.826 3.826a.258.258 0 01-.359.005A10.04 10.04 0 0016 5.924 10.046 10.046 0 005.924 15.931C5.886 21.528 10.412 26.077 16 26.077c4.534 0 8.369-2.995 9.634-7.115h-9.376a.258.258 0 01-.258-.258v-5.408c0-.142.115-.258.258-.258h15.485z"/><path fill="var(--color2, #1e88e5)" d="M31.742 13.038H29.81c.142 0 .258.115.258.258V16c0 1.012-.094 2.002-.274 2.962-1.331 7.114-7.371 12.57-14.761 13.009.283.017.567.026.854.028 7.874.054 14.444-5.581 15.838-13.038.18-.96.274-1.95.274-2.962v-2.704a.258.258 0 00-.258-.258z"/><path fill="var(--color3, #f44336)" d="M6.848 11.78L1.989 8.269C4.715 3.338 9.968 0 16.001 0c4.323 0 8.246 1.715 11.126 4.501a.258.258 0 01.004.369l-3.826 3.826a.257.257 0 01-.358.005 10.04 10.04 0 00-6.946-2.777 10.076 10.076 0 00-9.152 5.857z"/><path fill="var(--color4, #e53935)" d="M5.445 10.767l1.403 1.014a10.083 10.083 0 018.104-5.802l.081-.009c-.317-.03-.639-.046-.964-.046a10.048 10.048 0 00-8.624 4.843zM25.194 4.501a.258.258 0 01.004.369l-3.105 3.105c.298.226.582.468.853.726.101.096.26.094.359-.005l3.826-3.826a.259.259 0 00-.004-.369A15.952 15.952 0 0015.035.03a15.95 15.95 0 0110.16 4.471z"/><path fill="var(--color5, #4caf50)" d="M27.737 26.874A15.955 15.955 0 0116 32c-6.264 0-11.687-3.6-14.314-8.844l4.961-3.4a10.08 10.08 0 0016.231 3.607l4.859 3.51z"/><path fill="var(--color6, #43a047)" d="M6.647 19.756l-1.463 1.003a10.075 10.075 0 009.848 5.272 10.084 10.084 0 01-8.385-6.274zM16 32c4.638 0 8.815-1.973 11.737-5.126l-1.19-.86a15.972 15.972 0 01-11.51 5.957c.319.019.64.029.963.029z"/><path fill="var(--color7, #ffc107)" d="M5.924 16c0 1.328.257 2.595.724 3.756l-4.961 3.4A15.928 15.928 0 01.001 16c0-2.804.721-5.439 1.988-7.731l4.859 3.511A10.034 10.034 0 005.924 16z"/><path fill="var(--color8, #ffb300)" d="M5.184 20.759l1.463-1.003A10.044 10.044 0 015.923 16c0-1.507.331-2.937.924-4.22l-1.403-1.014a10.054 10.054 0 00-1.452 5.164 10.036 10.036 0 001.192 4.829z"/></symbol><symbol id="logo" viewBox="0 0 147 32"><path fill="none" stroke="var(--color1, #121d2e)" stroke-width="1.143" d="M147.429 0H0v32h147.429V0z"/><path fill="var(--color1, #121d2e)" d="M69.613 25.486h5.265v-2.373h-2.234V9.668h2.234v-2.37h-5.265v18.187zm10.938-3.772h3.147V10.679h4.352V8.114H76.199v2.565h4.352v11.035zm18.729-5.187a5.64 5.64 0 00-.709-2.866 4.825 4.825 0 00-1.953-1.889 6.188 6.188 0 00-5.625.03 5.098 5.098 0 00-2.001 1.913 5.347 5.347 0 00-.729 2.768c-.016.977.24 1.939.738 2.778a5.051 5.051 0 002.098 1.913 6.816 6.816 0 003.128.686 5.416 5.416 0 004.313-1.69l-1.613-1.749a3.503 3.503 0 01-1.175.768 4.014 4.014 0 01-1.448.242 3.354 3.354 0 01-1.982-.563 2.462 2.462 0 01-1.01-1.535h7.907c.039-.505.058-.777.058-.816l.001.01zm-5.421-3.128a2.555 2.555 0 011.714.592c.471.404.776.968.855 1.584h-5.153c.074-.62.38-1.189.855-1.593a2.61 2.61 0 011.729-.583zm11.543 8.471c.902.019 1.8-.122 2.651-.418a3.718 3.718 0 001.699-1.175 2.76 2.76 0 00.583-1.729 2.513 2.513 0 00-.602-1.787 3.148 3.148 0 00-1.418-.883c-.69-.194-1.39-.347-2.098-.457a9.288 9.288 0 01-1.671-.369.694.694 0 01-.525-.685.803.803 0 01.486-.7 3.057 3.057 0 011.457-.272 6.022 6.022 0 013.011.777l1.01-2.157a6.212 6.212 0 00-1.817-.67 10.165 10.165 0 00-2.206-.243 7.158 7.158 0 00-2.593.427 3.692 3.692 0 00-1.671 1.194 2.856 2.856 0 00-.571 1.759 2.545 2.545 0 00.611 1.829c.395.42.894.728 1.447.894.695.198 1.402.347 2.118.447a7.857 7.857 0 011.613.33.673.673 0 01.524.641c0 .635-.641.952-1.923.952a7.104 7.104 0 01-1.943-.281 6.352 6.352 0 01-1.69-.729l-1.01 2.171a6.654 6.654 0 001.983.815c.831.214 1.687.322 2.545.321v-.001zm13.309-2.798a1.952 1.952 0 01-1.224.389 1.264 1.264 0 01-.962-.359 1.43 1.43 0 01-.343-1.021v-4.253h2.603v-2.331h-2.602V8.95h-3.031v2.545h-1.609v2.334h1.613v4.294a3.647 3.647 0 001.016 2.792 4.07 4.07 0 002.886.952c.462.002.923-.054 1.371-.166.394-.092.768-.26 1.098-.495l-.816-2.134zm2.233 4.391h9.714v-1.749h-9.714v1.749zm16.473 2.023V7.299h-5.246v2.37h2.215v13.445h-2.215v2.373h5.246zM0 0h52.893l8.816 16.64L52.893 32H0V0z"/><path fill="var(--color2, #fff)" d="M18.357 8.114H12.47v13.6h3.147v-3.75h2.743a7.643 7.643 0 003.138-.592 4.578 4.578 0 002.045-1.715c.49-.782.74-1.69.719-2.613a4.702 4.702 0 00-.719-2.618 4.662 4.662 0 00-2.049-1.714 7.572 7.572 0 00-3.137-.598zm-.175 7.286h-2.565v-4.721h2.565a3.303 3.303 0 012.161.613 2.152 2.152 0 01.738 1.758 2.133 2.133 0 01-.738 1.739 3.302 3.302 0 01-2.157.611h-.005zm11.579-2.759v-1.379h-2.895v10.453h3.031V16.78a2.95 2.95 0 01.738-2.185 2.768 2.768 0 012.04-.73c.117 0 .343.013.68.039v-2.798a5.434 5.434 0 00-2.127.389 3.371 3.371 0 00-1.466 1.143l-.001.003zm10.857 9.229a6.207 6.207 0 002.953-.686 5.138 5.138 0 002.04-1.913 5.27 5.27 0 00.738-2.778 5.267 5.267 0 00-.735-2.778 5.138 5.138 0 00-2.04-1.913 6.684 6.684 0 00-5.916 0 5.124 5.124 0 00-2.05 1.913 5.27 5.27 0 00-.738 2.778c-.016.977.24 1.939.738 2.778a5.124 5.124 0 002.05 1.913 6.272 6.272 0 002.962.686h-.003zm0-2.487a2.56 2.56 0 01-1.923-.787 2.913 2.913 0 01-.758-2.108 2.917 2.917 0 01.758-2.108 2.543 2.543 0 011.923-.787 2.524 2.524 0 011.914.786c.518.577.786 1.335.747 2.109a2.94 2.94 0 01-.747 2.109 2.527 2.527 0 01-1.915.787v-.002z"/></symbol><symbol id="close" viewBox="0 0 32 32"><path d="M31.556 3.578L28.423.445 16.001 12.867 3.579.445.446 3.578 12.868 16 .446 28.422l3.133 3.133 12.422-12.422 12.422 12.422 3.133-3.133L19.134 16 31.556 3.578z"/></symbol><symbol id="heartBorder" viewBox="0 0 32 32"><path d="M16 30.22c-.456 0-.895-.165-1.237-.465a374.562 374.562 0 00-3.639-3.13l-.006-.005c-3.224-2.747-6.008-5.12-7.945-7.457-2.165-2.613-3.174-5.09-3.174-7.796 0-2.629.902-5.055 2.539-6.831C4.195 2.739 6.467 1.75 8.939 1.75c1.847 0 3.539.584 5.028 1.736A10.288 10.288 0 0116 5.609c.6-.83 1.281-1.541 2.033-2.123 1.489-1.152 3.181-1.736 5.028-1.736 2.471 0 4.744.99 6.401 2.786C31.099 6.312 32 8.737 32 11.367c0 2.706-1.008 5.184-3.174 7.796-1.937 2.337-4.721 4.71-7.944 7.457-1.102.939-2.35 2.002-3.646 3.136a1.878 1.878 0 01-1.237.464zM8.939 3.624c-1.942 0-3.725.775-5.023 2.182-1.317 1.428-2.042 3.403-2.042 5.56 0 2.276.846 4.312 2.743 6.6 1.833 2.212 4.56 4.536 7.717 7.227l.006.005c1.104.941 2.355 2.007 3.657 3.146a430.966 430.966 0 013.669-3.151c3.157-2.691 5.884-5.014 7.717-7.226 1.897-2.289 2.742-4.324 2.742-6.6 0-2.157-.725-4.132-2.042-5.56-1.297-1.407-3.081-2.182-5.023-2.182-1.422 0-2.728.452-3.881 1.344-1.028.795-1.743 1.8-2.163 2.503-.216.362-.596.577-1.016.577s-.801-.216-1.016-.577c-.42-.703-1.135-1.708-2.163-2.503-1.153-.892-2.459-1.344-3.881-1.344z"/></symbol><symbol id="signOut" viewBox="0 0 32 32"><path d="M25.293 9.293l-1.414 1.414L28.172 15H14v2h14.172l-4.293 4.293 1.414 1.414L32 16l-6.707-6.707z"/><path d="M22 30H2V2h20v2h2V1a1 1 0 00-1-1H1a1 1 0 00-1 1v30a1 1 0 001 1h22a1 1 0 001-1v-3h-2v2z"/></symbol><symbol id="heart" viewBox="0 0 32 32"><path d="M16 30.72l-2.24-2.24C5.44 21.12 0 16.16 0 10.08c0-4.96 3.84-8.8 8.8-8.8 2.72 0 5.44 1.28 7.2 3.36 1.76-2.08 4.48-3.36 7.2-3.36 4.96 0 8.8 3.84 8.8 8.8 0 6.08-5.44 11.04-13.76 18.4L16 30.72z"/></symbol><symbol id="arrowLeft" viewBox="0 0 32 32"><path d="M31.805 15.529l-10-10a.668.668 0 00-.943.943l8.862 8.862H.667a.667.667 0 100 1.334h29.057l-8.862 8.862a.668.668 0 00.942.943l10-10a.668.668 0 000-.943z"/></symbol><symbol id="burgerMenu" viewBox="0 0 32 32"><path d="M1 26h30v-3.333H1V26zm0-8.333h30v-3.333H1v3.333zM1 6v3.333h30V6H1z"/></symbol></defs></svg>
