<svg aria-hidden="true" xmlns="http://www.w3.org/2000/svg" overflow="hidden"><defs><symbol id="close" viewBox="0 0 32 32"><path d="M31.556 3.578L28.423.445 16.001 12.867 3.579.445.446 3.578 12.868 16 .446 28.422l3.133 3.133 12.422-12.422 12.422 12.422 3.133-3.133L19.134 16 31.556 3.578z"/></symbol><symbol id="heartBorder" viewBox="0 0 32 32"><path d="M16 30.22c-.456 0-.895-.165-1.237-.465a374.562 374.562 0 00-3.639-3.13l-.006-.005c-3.224-2.747-6.008-5.12-7.945-7.457-2.165-2.613-3.174-5.09-3.174-7.796 0-2.629.902-5.055 2.539-6.831C4.195 2.739 6.467 1.75 8.939 1.75c1.847 0 3.539.584 5.028 1.736A10.288 10.288 0 0116 5.609c.6-.83 1.281-1.541 2.033-2.123 1.489-1.152 3.181-1.736 5.028-1.736 2.471 0 4.744.99 6.401 2.786C31.099 6.312 32 8.737 32 11.367c0 2.706-1.008 5.184-3.174 7.796-1.937 2.337-4.721 4.71-7.944 7.457-1.102.939-2.35 2.002-3.646 3.136a1.878 1.878 0 01-1.237.464zM8.939 3.624c-1.942 0-3.725.775-5.023 2.182-1.317 1.428-2.042 3.403-2.042 5.56 0 2.276.846 4.312 2.743 6.6 1.833 2.212 4.56 4.536 7.717 7.227l.006.005c1.104.941 2.355 2.007 3.657 3.146a430.966 430.966 0 013.669-3.151c3.157-2.691 5.884-5.014 7.717-7.226 1.897-2.289 2.742-4.324 2.742-6.6 0-2.157-.725-4.132-2.042-5.56-1.297-1.407-3.081-2.182-5.023-2.182-1.422 0-2.728.452-3.881 1.344-1.028.795-1.743 1.8-2.163 2.503-.216.362-.596.577-1.016.577s-.801-.216-1.016-.577c-.42-.703-1.135-1.708-2.163-2.503-1.153-.892-2.459-1.344-3.881-1.344z"/></symbol><symbol id="signOut" viewBox="0 0 32 32"><path d="M25.293 9.293l-1.414 1.414L28.172 15H14v2h14.172l-4.293 4.293 1.414 1.414L32 16l-6.707-6.707z"/><path d="M22 30H2V2h20v2h2V1a1 1 0 00-1-1H1a1 1 0 00-1 1v30a1 1 0 001 1h22a1 1 0 001-1v-3h-2v2z"/></symbol><symbol id="heart" viewBox="0 0 32 32"><path d="M16 30.72l-2.24-2.24C5.44 21.12 0 16.16 0 10.08c0-4.96 3.84-8.8 8.8-8.8 2.72 0 5.44 1.28 7.2 3.36 1.76-2.08 4.48-3.36 7.2-3.36 4.96 0 8.8 3.84 8.8 8.8 0 6.08-5.44 11.04-13.76 18.4L16 30.72z"/></symbol><symbol id="arrowLeft" viewBox="0 0 32 32"><path d="M31.805 15.529l-10-10a.668.668 0 00-.943.943l8.862 8.862H.667a.667.667 0 100 1.334h29.057l-8.862 8.862a.668.668 0 00.942.943l10-10a.668.668 0 000-.943z"/></symbol><symbol id="burgerMenu" viewBox="0 0 32 32"><path d="M1 26h30v-3.333H1V26zm0-8.333h30v-3.333H1v3.333zM1 6v3.333h30V6H1z"/></symbol></defs></svg>